<svg xmlns="http://www.w3.org/2000/svg" style="display:none" aria-hidden="true">
  <!-- Icon sprite — 24x24 viewBox, stroke-based (inherits currentColor).
       Use: <svg class="icon"><use href="/assets/icons.svg#icon-home"/></svg>
       For filled/active state, add class .icon--filled (fills with currentColor). -->

  <symbol id="icon-home" viewBox="0 0 24 24">
    <path d="M3 12L12 3l9 9" />
    <path d="M5 10v10a1 1 0 0 0 1 1h4v-6h4v6h4a1 1 0 0 0 1-1V10" />
  </symbol>

  <symbol id="icon-library" viewBox="0 0 24 24">
    <path d="M4 4v16" />
    <path d="M8 4v16" />
    <path d="M12 4h8v16h-8z" />
    <path d="M16 9v6" />
  </symbol>

  <symbol id="icon-person" viewBox="0 0 24 24">
    <circle cx="12" cy="8" r="4" />
    <path d="M4 21c0-4.4 3.6-8 8-8s8 3.6 8 8" />
  </symbol>

  <symbol id="icon-album" viewBox="0 0 24 24">
    <circle cx="12" cy="12" r="9" />
    <circle cx="12" cy="12" r="3" />
    <circle cx="12" cy="12" r="0.5" fill="currentColor" stroke="none" />
  </symbol>

  <symbol id="icon-history" viewBox="0 0 24 24">
    <path d="M3 12a9 9 0 1 0 3-6.7" />
    <path d="M3 3v6h6" />
    <path d="M12 8v5l3 2" />
  </symbol>

  <symbol id="icon-audiotrack" viewBox="0 0 24 24">
    <path d="M9 18V5l11-2v13" />
    <circle cx="6" cy="18" r="3" />
    <circle cx="17" cy="16" r="3" />
  </symbol>

  <symbol id="icon-queue-music" viewBox="0 0 24 24">
    <path d="M3 6h13" />
    <path d="M3 12h13" />
    <path d="M3 18h8" />
    <path d="M17 15v6" />
    <circle cx="19.5" cy="20.5" r="2.5" />
    <path d="M17 15l4-2" />
  </symbol>

  <symbol id="icon-settings" viewBox="0 0 24 24">
    <circle cx="12" cy="12" r="3" />
    <path d="M19.4 15a1.7 1.7 0 0 0 .3 1.8l.1.1a2 2 0 1 1-2.8 2.8l-.1-.1a1.7 1.7 0 0 0-1.8-.3 1.7 1.7 0 0 0-1 1.5V21a2 2 0 1 1-4 0v-.1a1.7 1.7 0 0 0-1-1.5 1.7 1.7 0 0 0-1.8.3l-.1.1a2 2 0 1 1-2.8-2.8l.1-.1a1.7 1.7 0 0 0 .3-1.8 1.7 1.7 0 0 0-1.5-1H3a2 2 0 1 1 0-4h.1a1.7 1.7 0 0 0 1.5-1 1.7 1.7 0 0 0-.3-1.8l-.1-.1a2 2 0 1 1 2.8-2.8l.1.1a1.7 1.7 0 0 0 1.8.3h0a1.7 1.7 0 0 0 1-1.5V3a2 2 0 1 1 4 0v.1a1.7 1.7 0 0 0 1 1.5 1.7 1.7 0 0 0 1.8-.3l.1-.1a2 2 0 1 1 2.8 2.8l-.1.1a1.7 1.7 0 0 0-.3 1.8v0a1.7 1.7 0 0 0 1.5 1H21a2 2 0 1 1 0 4h-.1a1.7 1.7 0 0 0-1.5 1z" />
  </symbol>

  <symbol id="icon-play" viewBox="0 0 24 24">
    <path d="M6 4l14 8-14 8V4z" fill="currentColor" />
  </symbol>

  <symbol id="icon-pause" viewBox="0 0 24 24">
    <rect x="6" y="4" width="4" height="16" fill="currentColor" stroke="none" />
    <rect x="14" y="4" width="4" height="16" fill="currentColor" stroke="none" />
  </symbol>

  <symbol id="icon-skip-previous" viewBox="0 0 24 24">
    <path d="M19 20L7 12l12-8z" fill="currentColor" />
    <path d="M5 5v14" stroke-width="2.5" />
  </symbol>

  <symbol id="icon-skip-next" viewBox="0 0 24 24">
    <path d="M5 4l12 8-12 8V4z" fill="currentColor" />
    <path d="M19 5v14" stroke-width="2.5" />
  </symbol>

  <symbol id="icon-graphic-eq" viewBox="0 0 24 24">
    <path d="M4 10v4" />
    <path d="M8 6v12" />
    <path d="M12 9v6" />
    <path d="M16 4v16" />
    <path d="M20 11v2" />
  </symbol>

  <symbol id="icon-music-note" viewBox="0 0 24 24">
    <path d="M9 18V5l11-2v13" />
    <circle cx="6" cy="18" r="3" />
    <circle cx="17" cy="16" r="3" />
  </symbol>

  <symbol id="icon-schedule" viewBox="0 0 24 24">
    <circle cx="12" cy="12" r="9" />
    <path d="M12 7v5l3 2" />
  </symbol>

  <symbol id="icon-high-quality" viewBox="0 0 24 24">
    <path d="M12 2l3 6 6 1-4.5 4 1 6-5.5-3-5.5 3 1-6L3 9l6-1z" />
  </symbol>

  <symbol id="icon-folder-music" viewBox="0 0 24 24">
    <path d="M3 6a1 1 0 0 1 1-1h5l2 2h8a1 1 0 0 1 1 1v10a1 1 0 0 1-1 1H4a1 1 0 0 1-1-1z" />
    <path d="M11 11v5" />
    <circle cx="9.5" cy="16.5" r="1.5" />
  </symbol>
</svg>
