
<svg xmlns="http://www.w3.org/2000/svg" style="display:none" aria-hidden="true">
  <symbol id="icon-home" viewBox="0 0 24 24">
    <path d="M3 11 12 3l9 8M5 9v12h14V9"></path>
  </symbol>
  <symbol id="icon-library" viewBox="0 0 24 24">
    <path d="M4 4h3v16H4zM10 4h3v16h-3zM16 4l5 1.5-3 14.5-5-1.5z"></path>
  </symbol>
  <symbol id="icon-person" viewBox="0 0 24 24">
    <circle cx="12" cy="8" r="4"></circle>
    <path d="M4 21c0-4 4-6 8-6s8 2 8 6"></path>
  </symbol>
  <symbol id="icon-album" viewBox="0 0 24 24">
    <circle cx="12" cy="12" r="9"></circle>
    <circle cx="12" cy="12" r="2"></circle>
  </symbol>
  <symbol id="icon-history" viewBox="0 0 24 24">
    <path d="M3 12a9 9 0 1 0 3-6.7L3 8M3 3v5h5M12 7v5l3 2"></path>
  </symbol>
  <symbol id="icon-audiotrack" viewBox="0 0 24 24">
    <path d="M9 18V5l11-2v13"></path>
    <circle cx="6" cy="18" r="3"></circle>
    <circle cx="17" cy="16" r="3"></circle>
  </symbol>
  <symbol id="icon-queue-music" viewBox="0 0 24 24">
    <path d="M3 6h13M3 12h13M3 18h9M19 10v10"></path>
    <circle cx="16" cy="20" r="2"></circle>
  </symbol>
  <symbol id="icon-settings" viewBox="0 0 24 24">
    <circle cx="12" cy="12" r="3"></circle>
    <path d="M19.4 15a1.7 1.7 0 0 0 .3 1.8l.1.1a2 2 0 1 1-2.8 2.8l-.1-.1a1.7 1.7 0 0 0-1.8-.3 1.7 1.7 0 0 0-1 1.5V21a2 2 0 1 1-4 0v-.1a1.7 1.7 0 0 0-1-1.5 1.7 1.7 0 0 0-1.8.3l-.1.1a2 2 0 1 1-2.8-2.8l.1-.1a1.7 1.7 0 0 0 .3-1.8 1.7 1.7 0 0 0-1.5-1H3a2 2 0 1 1 0-4h.1a1.7 1.7 0 0 0 1.5-1 1.7 1.7 0 0 0-.3-1.8l-.1-.1a2 2 0 1 1 2.8-2.8l.1.1a1.7 1.7 0 0 0 1.8.3H9a1.7 1.7 0 0 0 1-1.5V3a2 2 0 1 1 4 0v.1a1.7 1.7 0 0 0 1 1.5 1.7 1.7 0 0 0 1.8-.3l.1-.1a2 2 0 1 1 2.8 2.8l-.1.1a1.7 1.7 0 0 0-.3 1.8V9a1.7 1.7 0 0 0 1.5 1H21a2 2 0 1 1 0 4h-.1a1.7 1.7 0 0 0-1.5 1z"></path>
  </symbol>
  <symbol id="icon-play" viewBox="0 0 24 24">
    <path d="M6 4v16l14-8z" fill="currentColor" stroke="none"></path>
  </symbol>
  <symbol id="icon-pause" viewBox="0 0 24 24">
    <rect x="6" y="4" width="4" height="16" fill="currentColor" stroke="none"></rect>
    <rect x="14" y="4" width="4" height="16" fill="currentColor" stroke="none"></rect>
  </symbol>
  <symbol id="icon-skip-previous" viewBox="0 0 24 24">
    <path d="M6 4v16M20 4 8 12l12 8z" fill="currentColor" stroke="currentColor"></path>
  </symbol>
  <symbol id="icon-skip-next" viewBox="0 0 24 24">
    <path d="M18 4v16M4 4l12 8-12 8z" fill="currentColor" stroke="currentColor"></path>
  </symbol>
  <symbol id="icon-shuffle" viewBox="0 0 24 24">
    <path d="M16 4h5v5M3 20l18-16M21 15v5h-5M15 14l6 6M3 4l6 6"></path>
  </symbol>
  <symbol id="icon-repeat" viewBox="0 0 24 24">
    <path d="M17 2l4 4-4 4M3 11V9a4 4 0 0 1 4-4h14M7 22l-4-4 4-4M21 13v2a4 4 0 0 1-4 4H3"></path>
  </symbol>
  <symbol id="icon-volume" viewBox="0 0 24 24">
    <path d="M11 5 6 9H2v6h4l5 4zM15 9a5 5 0 0 1 0 6M19 5a9 9 0 0 1 0 14"></path>
  </symbol>
  <symbol id="icon-volume-mute" viewBox="0 0 24 24">
    <path d="M11 5 6 9H2v6h4l5 4zM22 9l-6 6M16 9l6 6"></path>
  </symbol>
  <symbol id="icon-music-note" viewBox="0 0 24 24">
    <path d="M9 18V5l11-2v13"></path>
    <circle cx="6" cy="18" r="3"></circle>
    <circle cx="17" cy="16" r="3"></circle>
  </symbol>
  <symbol id="icon-folder-music" viewBox="0 0 24 24">
    <path d="M3 7l3-3h4l2 2h9v13H3z"></path>
    <path d="M11 14V9l6-1v5"></path>
    <circle cx="10" cy="14" r="1.5"></circle>
    <circle cx="16" cy="13" r="1.5"></circle>
  </symbol>
  <symbol id="icon-folder" viewBox="0 0 24 24">
    <path d="M3 7l3-3h4l2 2h9v13H3z"></path>
  </symbol>
  <symbol id="icon-search" viewBox="0 0 24 24">
    <circle cx="11" cy="11" r="8"></circle>
    <line x1="21" y1="21" x2="16.65" y2="16.65"></line>
  </symbol>
  <symbol id="icon-chevron-left" viewBox="0 0 24 24">
    <path d="M15 6 9 12l6 6"></path>
  </symbol>
  <symbol id="icon-chevron-right" viewBox="0 0 24 24">
    <path d="m9 6 6 6-6 6"></path>
  </symbol>
  <symbol id="icon-arrow-left" viewBox="0 0 24 24">
    <path d="M19 12H5M11 5l-6 7 6 7"></path>
  </symbol>
  <symbol id="icon-sliders" viewBox="0 0 24 24">
    <path d="M4 21v-7M4 10V3M12 21v-9M12 8V3M20 21v-5M20 12V3M1 14h6M9 8h6M17 16h6"></path>
  </symbol>
  <symbol id="icon-drag" viewBox="0 0 24 24">
    <circle cx="9" cy="5" r="1.5" fill="currentColor"></circle>
    <circle cx="15" cy="5" r="1.5" fill="currentColor"></circle>
    <circle cx="9" cy="12" r="1.5" fill="currentColor"></circle>
    <circle cx="15" cy="12" r="1.5" fill="currentColor"></circle>
    <circle cx="9" cy="19" r="1.5" fill="currentColor"></circle>
    <circle cx="15" cy="19" r="1.5" fill="currentColor"></circle>
  </symbol>
  <symbol id="icon-plus" viewBox="0 0 24 24">
    <path d="M12 5v14M5 12h14"></path>
  </symbol>
  <symbol id="icon-radio" viewBox="0 0 24 24">
    <path d="M4.9 19.1C1 15.2 1 8.8 4.9 4.9"></path>
    <path d="M7.8 16.2c-2.3-2.3-2.3-6.1 0-8.5"></path>
    <circle cx="12" cy="12" r="2"></circle>
    <path d="M16.2 7.8c2.3 2.3 2.3 6.1 0 8.5"></path>
    <path d="M19.1 4.9C23 8.8 23 15.1 19.1 19"></path>
  </symbol>
  <symbol id="icon-logo-mark" viewBox="0 0 64 64">
    <rect x="14" y="12" width="4" height="40" fill="currentColor"></rect>
    <rect x="18" y="12" width="24" height="4" fill="currentColor"></rect>
    <rect x="38" y="16" width="4" height="16" fill="currentColor"></rect>
    <rect x="18" y="28" width="20" height="4" fill="currentColor"></rect>
    <rect x="26" y="32" width="4" height="5" fill="currentColor"></rect>
    <rect x="30" y="37" width="4" height="5" fill="currentColor"></rect>
    <rect x="34" y="42" width="4" height="5" fill="currentColor"></rect>
    <rect x="38" y="47" width="4" height="5" fill="currentColor"></rect>
    <rect x="46" y="44" width="2" height="8" fill="currentColor"></rect>
    <rect x="50" y="36" width="2" height="16" fill="currentColor"></rect>
    <rect x="54" y="24" width="2" height="28" fill="currentColor"></rect>
  </symbol>
  <symbol id="icon-flame" viewBox="0 0 12 15">
    <path d="M6,0h1v1h-1zM6,1h2v1h-2zM6,2h3v1h-3zM3,3h1v1h-1zM5,3h2v1h-2zM8,3h1v1h-1zM2,4h1v1h-1zM4,4h2v1h-2zM8,4h1v1h-1zM2,5h3v1h-3zM8,5h3v1h-3zM2,6h1v1h-1zM7,6h2v1h-2zM10,6h1v1h-1zM2,7h1v1h-1zM5,7h4v1h-4zM0,8h4v1h-4zM8,8h4v1h-4zM0,9h1v1h-1zM2,9h1v1h-1zM8,9h1v1h-1zM10,9h2v1h-2zM0,10h1v1h-1zM6,10h3v1h-3zM10,10h2v1h-2zM0,11h2v1h-2zM3,11h2v1h-2zM6,11h2v1h-2zM10,11h1v1h-1zM1,12h1v1h-1zM3,12h2v1h-2zM9,12h2v1h-2zM2,13h2v1h-2zM8,13h2v1h-2zM4,14h3v1h-3z" fill="currentColor"/>
  </symbol>
</svg>